<?xml version="1.0" encoding="UTF-8"?>
<!DOCTYPE score-partwise PUBLIC "-//Recordare//DTD MusicXML 3.1 Partwise//EN" "http://www.musicxml.org/dtds/partwise.dtd">
<score-partwise version="3.1">
  <work>
    <work-title>Title</work-title>
    </work>
  <identification>
    <rights>Sadhana, https://raag-hindustani.com</rights>
    <encoding>
      <software>MuseScore 3.6.1</software>
      <encoding-date>2021-05-20</encoding-date>
      <supports element="accidental" type="yes"/>
      <supports element="beam" type="yes"/>
      <supports element="print" attribute="new-page" type="yes" value="yes"/>
      <supports element="print" attribute="new-system" type="yes" value="yes"/>
      <supports element="stem" type="yes"/>
      </encoding>
    </identification>
  <defaults>
    <scaling>
      <millimeters>7.056</millimeters>
      <tenths>40</tenths>
      </scaling>
    <page-layout>
      <page-height>2836.74</page-height>
      <page-width>1223.92</page-width>
      <page-margins type="even">
        <left-margin>56.6894</left-margin>
        <right-margin>56.6894</right-margin>
        <top-margin>56.6894</top-margin>
        <bottom-margin>113.379</bottom-margin>
        </page-margins>
      <page-margins type="odd">
        <left-margin>56.6894</left-margin>
        <right-margin>56.6894</right-margin>
        <top-margin>56.6894</top-margin>
        <bottom-margin>113.379</bottom-margin>
        </page-margins>
      </page-layout>
    <word-font font-family="FreeSerif" font-size="10"/>
    <lyric-font font-family="FreeSerif" font-size="16"/>
    </defaults>
  <credit page="1">
    <credit-type>title</credit-type>
    <credit-words default-x="611.961" default-y="2804.8" justify="center" valign="top" font-family="Times New Roman" font-size="15">
</credit-words>
    <credit-words>
</credit-words>
    <credit-words>
</credit-words>
    <credit-words font-weight="bold">Raag Jog ascending and descending scales (aroh &amp; avroh)
</credit-words>
    <credit-words>
</credit-words>
    <credit-words>
</credit-words>
    <credit-words>
</credit-words>
    <credit-words>
</credit-words>
    <credit-words>
</credit-words>
    </credit>
  <credit page="1">
    <credit-type>subtitle</credit-type>
    <credit-words default-x="56.6894" default-y="2695.01" justify="left" valign="top" font-family="Times New Roman" font-size="14">
</credit-words>
    </credit>
  <credit page="1">
    <credit-type>subtitle</credit-type>
    <credit-words default-x="611.961" default-y="2416.86" justify="center" valign="top" font-family="Times New Roman" font-size="14"> 
</credit-words>
    <credit-words font-weight="bold" underline="1">Lyrics
</credit-words>
    <credit-words>
</credit-words>
    <credit-words font-weight="normal" font-style="italic" underline="0">saajan more ghar aaye
</credit-words>
    <credit-words>ati mana sukha paaye
</credit-words>
    <credit-words>
</credit-words>
    <credit-words>mangal gaao chauk puraao
</credit-words>
    <credit-words>prem piya ham paaye
</credit-words>
    <credit-words>
</credit-words>
    <credit-words>
</credit-words>
    <credit-words font-style="normal">This popular composition in Raag Jog is an old
</credit-words>
    <credit-words>drut khayal written from the perspective of a woman 
</credit-words>
    <credit-words>eagerly anticipating her husband's return. 
</credit-words>
    <credit-words>Her heart is filled with gladness, 
</credit-words>
    <credit-words>and she urges her friends to join her in singing auspicious songs 
</credit-words>
    <credit-words>and preparing the house for his arrival. 
</credit-words>
    <credit-words>
</credit-words>
    <credit-words>The Musescore-generated audio does not render Indian music accurately. 
</credit-words>
    <credit-words>Raag Jog, especially, involves a lot of glides unique to Indian music.
</credit-words>
    <credit-words>
</credit-words>
    <credit-words>So please click on the sound-mixer icon and choose the YouTube video as the audio source.
</credit-words>
    <credit-words>
</credit-words>
    </credit>
  <credit page="1">
    <credit-type>title</credit-type>
    <credit-words default-x="611.961" default-y="2505.37" justify="center" valign="top" font-weight="bold" font-style="italic" font-family="Times New Roman" font-size="15">Bandish
</credit-words>
    <credit-words font-style="normal"> in Raag Jog, Teentaal (16-beat rhythm cycle)
</credit-words>
    <credit-words font-weight="normal" underline="1">Composition by Faiyaz Khan (Prem Piya)
</credit-words>
    </credit>
  <credit page="1">
    <credit-type>rights</credit-type>
    <credit-words default-x="611.961" default-y="113.379" justify="center" valign="bottom" font-size="14">Sadhana, https://raag-hindustani.com</credit-words>
    </credit>
  <part-list>
    <score-part id="P1">
      <part-name>Piano</part-name>
      <part-abbreviation>Pno.</part-abbreviation>
      <score-instrument id="P1-I1">
        <instrument-name>Piano</instrument-name>
        </score-instrument>
      <midi-device id="P1-I1" port="1"></midi-device>
      <midi-instrument id="P1-I1">
        <midi-channel>1</midi-channel>
        <midi-program>1</midi-program>
        <volume>78.7402</volume>
        <pan>0</pan>
        </midi-instrument>
      </score-part>
    </part-list>
  <part id="P1">
    <measure number="1" width="1110.54">
      <print>
        <system-layout>
          <system-margins>
            <left-margin>0.00</left-margin>
            <right-margin>-0.00</right-margin>
            </system-margins>
          <top-system-distance>124.08</top-system-distance>
          </system-layout>
        </print>
      <attributes>
        <divisions>2</divisions>
        <key>
          <fifths>-2</fifths>
          </key>
        <time print-object="no">
          <beats>16</beats>
          <beat-type>4</beat-type>
          </time>
        <clef>
          <sign>G</sign>
          <line>2</line>
          </clef>
        </attributes>
      <note default-x="66.01" default-y="-55.00">
        <pitch>
          <step>B</step>
          <alter>-1</alter>
          <octave>3</octave>
          </pitch>
        <duration>2</duration>
        <voice>1</voice>
        <type>quarter</type>
        <stem>up</stem>
        <lyric number="1" default-x="3.03" default-y="-63.00" relative-y="-30.00">
          <syllabic>single</syllabic>
          <text font-weight="bold">'n</text>
          </lyric>
        </note>
      <note default-x="134.76" default-y="-50.00">
        <pitch>
          <step>C</step>
          <octave>4</octave>
          </pitch>
        <duration>2</duration>
        <voice>1</voice>
        <type>quarter</type>
        <stem>up</stem>
        <lyric number="1" default-x="6.58" default-y="-63.00" relative-y="-30.00">
          <syllabic>single</syllabic>
          <text font-weight="bold">S</text>
          </lyric>
        </note>
      <note default-x="203.52" default-y="-40.00">
        <pitch>
          <step>E</step>
          <octave>4</octave>
          </pitch>
        <duration>2</duration>
        <voice>1</voice>
        <type>quarter</type>
        <accidental>natural</accidental>
        <stem>up</stem>
        <lyric number="1" default-x="6.58" default-y="-63.00" relative-y="-30.00">
          <syllabic>single</syllabic>
          <text font-weight="bold">G</text>
          </lyric>
        </note>
      <note default-x="272.27" default-y="-35.00">
        <pitch>
          <step>F</step>
          <octave>4</octave>
          </pitch>
        <duration>2</duration>
        <voice>1</voice>
        <type>quarter</type>
        <stem>up</stem>
        <lyric number="1" default-x="6.58" default-y="-63.00" relative-y="-30.00">
          <syllabic>single</syllabic>
          <text font-weight="bold">m</text>
          </lyric>
        </note>
      <note default-x="341.03" default-y="-30.00">
        <pitch>
          <step>G</step>
          <octave>4</octave>
          </pitch>
        <duration>2</duration>
        <voice>1</voice>
        <type>quarter</type>
        <stem>up</stem>
        <lyric number="1" default-x="6.58" default-y="-63.00" relative-y="-30.00">
          <syllabic>single</syllabic>
          <text font-weight="bold">P</text>
          </lyric>
        </note>
      <note default-x="409.79" default-y="-20.00">
        <pitch>
          <step>B</step>
          <alter>-1</alter>
          <octave>4</octave>
          </pitch>
        <duration>2</duration>
        <voice>1</voice>
        <type>quarter</type>
        <stem>down</stem>
        <lyric number="1" default-x="6.58" default-y="-63.00" relative-y="-30.00">
          <syllabic>single</syllabic>
          <text font-weight="bold">n</text>
          </lyric>
        </note>
      <note default-x="478.54" default-y="-15.00">
        <pitch>
          <step>C</step>
          <octave>5</octave>
          </pitch>
        <duration>2</duration>
        <voice>1</voice>
        <type>quarter</type>
        <stem>down</stem>
        <lyric number="1" default-x="16.49" default-y="-63.00" relative-y="-30.00">
          <syllabic>single</syllabic>
          <text font-weight="bold">S'/</text>
          </lyric>
        </note>
      <barline location="middle">
        <bar-style>dashed</bar-style>
        </barline>
      <note default-x="558.90" default-y="-15.00">
        <pitch>
          <step>C</step>
          <octave>5</octave>
          </pitch>
        <duration>2</duration>
        <voice>1</voice>
        <type>quarter</type>
        <stem>down</stem>
        <lyric number="1" default-x="10.50" default-y="-63.00" relative-y="-30.00">
          <syllabic>single</syllabic>
          <text font-weight="bold">S'</text>
          </lyric>
        </note>
      <note default-x="627.65" default-y="-20.00">
        <pitch>
          <step>B</step>
          <alter>-1</alter>
          <octave>4</octave>
          </pitch>
        <duration>2</duration>
        <voice>1</voice>
        <type>quarter</type>
        <stem>down</stem>
        <lyric number="1" default-x="6.58" default-y="-63.00" relative-y="-30.00">
          <syllabic>single</syllabic>
          <text font-weight="bold">n</text>
          </lyric>
        </note>
      <note default-x="696.41" default-y="-30.00">
        <pitch>
          <step>G</step>
          <octave>4</octave>
          </pitch>
        <duration>2</duration>
        <voice>1</voice>
        <type>quarter</type>
        <stem>up</stem>
        <lyric number="1" default-x="6.58" default-y="-63.00" relative-y="-30.00">
          <syllabic>single</syllabic>
          <text font-weight="bold">P</text>
          </lyric>
        </note>
      <note default-x="765.17" default-y="-35.00">
        <pitch>
          <step>F</step>
          <octave>4</octave>
          </pitch>
        <duration>2</duration>
        <voice>1</voice>
        <type>quarter</type>
        <stem>up</stem>
        <lyric number="1" default-x="6.58" default-y="-63.00" relative-y="-30.00">
          <syllabic>single</syllabic>
          <text font-weight="bold">m</text>
          </lyric>
        </note>
      <note default-x="833.92" default-y="-40.00">
        <pitch>
          <step>E</step>
          <octave>4</octave>
          </pitch>
        <duration>2</duration>
        <voice>1</voice>
        <type>quarter</type>
        <stem>up</stem>
        <lyric number="1" default-x="6.58" default-y="-63.00" relative-y="-30.00">
          <syllabic>single</syllabic>
          <text font-weight="bold">G</text>
          </lyric>
        </note>
      <note default-x="902.68" default-y="-35.00">
        <pitch>
          <step>F</step>
          <octave>4</octave>
          </pitch>
        <duration>2</duration>
        <voice>1</voice>
        <type>quarter</type>
        <stem>up</stem>
        <lyric number="1" default-x="6.58" default-y="-63.00" relative-y="-30.00">
          <syllabic>single</syllabic>
          <text font-weight="bold">m</text>
          </lyric>
        </note>
      <note default-x="971.43" default-y="-40.00">
        <pitch>
          <step>E</step>
          <alter>-1</alter>
          <octave>4</octave>
          </pitch>
        <duration>2</duration>
        <voice>1</voice>
        <type>quarter</type>
        <accidental>flat</accidental>
        <stem>up</stem>
        <lyric number="1" default-x="6.58" default-y="-63.00" relative-y="-30.00">
          <syllabic>single</syllabic>
          <text font-weight="bold">g</text>
          </lyric>
        </note>
      <note default-x="1040.19" default-y="-50.00">
        <pitch>
          <step>C</step>
          <octave>4</octave>
          </pitch>
        <duration>2</duration>
        <voice>1</voice>
        <type>quarter</type>
        <stem>up</stem>
        <lyric number="1" default-x="6.58" default-y="-63.00" relative-y="-30.00">
          <syllabic>single</syllabic>
          <text font-weight="bold">S</text>
          </lyric>
        </note>
      </measure>
    <measure number="2" width="1110.54">
      <print new-system="yes">
        <system-layout>
          <system-margins>
            <left-margin>0.00</left-margin>
            <right-margin>-0.00</right-margin>
            </system-margins>
          <system-distance>972.40</system-distance>
          </system-layout>
        </print>
      <attributes>
        <key>
          <fifths>-2</fifths>
          </key>
        <time>
          <beats>16</beats>
          <beat-type>4</beat-type>
          </time>
        </attributes>
      <direction>
        <direction-type>
          <words relative-y="20.00" font-family="Times New Roman" font-size="12">
</words>
          </direction-type>
        </direction>
      <direction placement="above">
        <direction-type>
          <metronome parentheses="no" default-x="-47.23" default-y="30.60" relative-y="20.00">
            <beat-unit>quarter</beat-unit>
            <per-minute>150</per-minute>
            </metronome>
          </direction-type>
        <direction-type>
          <words default-x="-47.23" default-y="30.60" relative-y="20.00" font-weight="bold" font-size="12">+ (Drut)
</words>
          </direction-type>
        <sound tempo="150"/>
        </direction>
      <note>
        <rest/>
        <duration>2</duration>
        <voice>1</voice>
        <type>quarter</type>
        </note>
      <direction>
        <direction-type>
          <words relative-y="20.00" font-family="Times New Roman" font-size="12">
</words>
          </direction-type>
        </direction>
      <note>
        <rest/>
        <duration>2</duration>
        <voice>1</voice>
        <type>quarter</type>
        </note>
      <direction>
        <direction-type>
          <words relative-y="20.00" font-family="Times New Roman" font-size="12">
</words>
          </direction-type>
        </direction>
      <note>
        <rest/>
        <duration>2</duration>
        <voice>1</voice>
        <type>quarter</type>
        </note>
      <direction>
        <direction-type>
          <words relative-y="20.00" font-family="Times New Roman" font-size="12">
</words>
          </direction-type>
        </direction>
      <note>
        <rest/>
        <duration>2</duration>
        <voice>1</voice>
        <type>quarter</type>
        </note>
      <direction>
        <direction-type>
          <words relative-y="20.00" font-family="Times New Roman" font-size="12">
</words>
          </direction-type>
        </direction>
      <note>
        <rest/>
        <duration>2</duration>
        <voice>1</voice>
        <type>quarter</type>
        </note>
      <direction>
        <direction-type>
          <words relative-y="20.00" font-family="Times New Roman" font-size="12">
</words>
          </direction-type>
        </direction>
      <note>
        <rest/>
        <duration>2</duration>
        <voice>1</voice>
        <type>quarter</type>
        </note>
      <direction>
        <direction-type>
          <words relative-y="20.00" font-family="Times New Roman" font-size="12">
</words>
          </direction-type>
        </direction>
      <note>
        <rest/>
        <duration>2</duration>
        <voice>1</voice>
        <type>quarter</type>
        </note>
      <direction>
        <direction-type>
          <words relative-y="20.00" font-family="Times New Roman" font-size="12">
</words>
          </direction-type>
        </direction>
      <note>
        <rest/>
        <duration>2</duration>
        <voice>1</voice>
        <type>quarter</type>
        </note>
      <barline location="middle">
        <bar-style>dashed</bar-style>
        </barline>
      <direction>
        <direction-type>
          <words relative-y="20.00" font-family="Times New Roman" font-size="12">
</words>
          </direction-type>
        </direction>
      <note>
        <rest/>
        <duration>2</duration>
        <voice>1</voice>
        <type>quarter</type>
        </note>
      <direction>
        <direction-type>
          <words relative-y="20.00" font-family="Times New Roman" font-size="12">
</words>
          </direction-type>
        </direction>
      <note default-x="654.89" default-y="-40.00">
        <pitch>
          <step>E</step>
          <octave>4</octave>
          </pitch>
        <duration>1</duration>
        <voice>1</voice>
        <type>eighth</type>
        <accidental>natural</accidental>
        <stem>up</stem>
        <lyric number="1" default-x="6.58" default-y="-57.52" relative-y="-30.00">
          <syllabic>single</syllabic>
          <text font-weight="bold">Sa</text>
          </lyric>
        <lyric number="2" default-x="6.58" default-y="-90.64" relative-y="-30.00">
          <syllabic>single</syllabic>
          <text font-size="14">G</text>
          </lyric>
        </note>
      <note default-x="691.20" default-y="-35.00">
        <pitch>
          <step>F</step>
          <octave>4</octave>
          </pitch>
        <duration>2</duration>
        <voice>1</voice>
        <type>quarter</type>
        <stem>up</stem>
        <lyric number="1" default-x="6.58" default-y="-57.52" relative-y="-30.00">
          <syllabic>single</syllabic>
          <text font-weight="bold">aa</text>
          </lyric>
        <lyric number="2" default-x="6.58" default-y="-90.64" relative-y="-30.00">
          <syllabic>single</syllabic>
          <text font-size="14">m</text>
          </lyric>
        </note>
      <note default-x="763.82" default-y="-40.00">
        <pitch>
          <step>E</step>
          <alter>-1</alter>
          <octave>4</octave>
          </pitch>
        <duration>2</duration>
        <voice>1</voice>
        <type>quarter</type>
        <accidental>flat</accidental>
        <stem>up</stem>
        <lyric number="1" default-x="6.58" default-y="-57.52" relative-y="-30.00">
          <syllabic>single</syllabic>
          <text font-weight="bold">ja</text>
          </lyric>
        <lyric number="2" default-x="6.58" default-y="-90.64" relative-y="-30.00">
          <syllabic>single</syllabic>
          <text font-size="14">g</text>
          </lyric>
        </note>
      <note default-x="836.45" default-y="-50.00">
        <pitch>
          <step>C</step>
          <octave>4</octave>
          </pitch>
        <duration>1</duration>
        <voice>1</voice>
        <type>eighth</type>
        <stem>up</stem>
        <lyric number="1" default-x="6.58" default-y="-57.52" relative-y="-30.00">
          <syllabic>single</syllabic>
          <text font-weight="bold">na</text>
          </lyric>
        <lyric number="2" default-x="6.58" default-y="-90.64" relative-y="-30.00">
          <syllabic>single</syllabic>
          <text font-size="14">S</text>
          </lyric>
        </note>
      <direction>
        <direction-type>
          <words relative-y="20.00" font-family="Times New Roman" font-size="12">
</words>
          </direction-type>
        </direction>
      <note default-x="876.55" default-y="-50.00">
        <pitch>
          <step>C</step>
          <octave>4</octave>
          </pitch>
        <duration>2</duration>
        <voice>1</voice>
        <type>quarter</type>
        <stem>up</stem>
        <lyric number="1" default-x="6.58" default-y="-57.52" relative-y="-30.00">
          <syllabic>single</syllabic>
          <text font-weight="bold">mo</text>
          </lyric>
        <lyric number="2" default-x="6.58" default-y="-90.64" relative-y="-30.00">
          <syllabic>single</syllabic>
          <text font-size="14">S</text>
          </lyric>
        </note>
      <direction>
        <direction-type>
          <words relative-y="20.00" font-family="Times New Roman" font-size="12">
</words>
          </direction-type>
        </direction>
      <note default-x="934.65" default-y="-55.00">
        <pitch>
          <step>B</step>
          <alter>-1</alter>
          <octave>3</octave>
          </pitch>
        <duration>2</duration>
        <voice>1</voice>
        <type>quarter</type>
        <stem>up</stem>
        <lyric number="1" default-x="6.58" default-y="-57.52" relative-y="-30.00">
          <syllabic>single</syllabic>
          <text font-weight="bold">re</text>
          </lyric>
        <lyric number="2" default-x="4.55" default-y="-90.64" relative-y="-30.00">
          <syllabic>single</syllabic>
          <text font-size="14">'n</text>
          </lyric>
        </note>
      <direction>
        <direction-type>
          <words relative-y="20.00" font-family="Times New Roman" font-size="12">
</words>
          </direction-type>
        </direction>
      <note default-x="992.75" default-y="-40.00">
        <pitch>
          <step>E</step>
          <alter>-1</alter>
          <octave>4</octave>
          </pitch>
        <duration>2</duration>
        <voice>1</voice>
        <type>quarter</type>
        <stem>up</stem>
        <lyric number="1" default-x="6.58" default-y="-57.52" relative-y="-30.00">
          <syllabic>single</syllabic>
          <text font-weight="bold">gha</text>
          </lyric>
        <lyric number="2" default-x="6.58" default-y="-90.64" relative-y="-30.00">
          <syllabic>single</syllabic>
          <text font-size="14">g</text>
          </lyric>
        </note>
      <direction>
        <direction-type>
          <words relative-y="20.00" font-family="Times New Roman" font-size="12">
</words>
          </direction-type>
        </direction>
      <note default-x="1050.84" default-y="-40.00">
        <pitch>
          <step>E</step>
          <alter>-1</alter>
          <octave>4</octave>
          </pitch>
        <duration>2</duration>
        <voice>1</voice>
        <type>quarter</type>
        <stem>up</stem>
        <lyric number="1" default-x="6.58" default-y="-57.52" relative-y="-30.00">
          <syllabic>single</syllabic>
          <text font-weight="bold">ra</text>
          </lyric>
        <lyric number="2" default-x="6.58" default-y="-90.64" relative-y="-30.00">
          <syllabic>single</syllabic>
          <text font-size="14">g</text>
          </lyric>
        </note>
      <direction>
        <direction-type>
          <words relative-y="20.00" font-family="Times New Roman" font-size="12">
</words>
          </direction-type>
        <offset>-12</offset>
        </direction>
      <direction>
        <direction-type>
          <words relative-y="20.00" font-family="Times New Roman" font-size="12">
</words>
          </direction-type>
        <offset>-10</offset>
        </direction>
      <barline location="right">
        <bar-style>dashed</bar-style>
        </barline>
      </measure>
    <measure number="3" width="1110.54">
      <print new-system="yes">
        <system-layout>
          <system-margins>
            <left-margin>0.00</left-margin>
            <right-margin>-0.00</right-margin>
            </system-margins>
          <system-distance>133.75</system-distance>
          </system-layout>
        </print>
      <note default-x="91.01" default-y="-50.00">
        <pitch>
          <step>C</step>
          <octave>4</octave>
          </pitch>
        <duration>6</duration>
        <voice>1</voice>
        <type>half</type>
        <dot/>
        <stem>up</stem>
        <lyric number="1" default-x="6.22" default-y="-65.80" relative-y="-30.00">
          <syllabic>single</syllabic>
          <text font-weight="bold">aa</text>
          </lyric>
        <lyric number="2" default-x="6.22" default-y="-98.92" relative-y="-30.00">
          <syllabic>single</syllabic>
          <text font-size="14">S</text>
          </lyric>
        </note>
      <note default-x="198.40" default-y="-40.00">
        <pitch>
          <step>E</step>
          <alter>-1</alter>
          <octave>4</octave>
          </pitch>
        <duration>1</duration>
        <voice>1</voice>
        <type>eighth</type>
        <stem>up</stem>
        <beam number="1">begin</beam>
        <lyric number="1" default-x="6.58" default-y="-65.80" relative-y="-30.00">
          <syllabic>single</syllabic>
          <text font-weight="bold">aa</text>
          </lyric>
        <lyric number="2" default-x="6.58" default-y="-98.92" relative-y="-30.00">
          <syllabic>single</syllabic>
          <text font-size="14">g</text>
          </lyric>
        </note>
      <note default-x="240.36" default-y="-50.00">
        <pitch>
          <step>C</step>
          <octave>4</octave>
          </pitch>
        <duration>1</duration>
        <voice>1</voice>
        <type>eighth</type>
        <stem>up</stem>
        <beam number="1">end</beam>
        <lyric number="1" default-x="6.58" default-y="-65.80" relative-y="-30.00">
          <syllabic>single</syllabic>
          <text font-weight="bold">aa</text>
          </lyric>
        <lyric number="2" default-x="6.58" default-y="-98.92" relative-y="-30.00">
          <syllabic>single</syllabic>
          <text font-size="14">S</text>
          </lyric>
        </note>
      <note default-x="282.32" default-y="-55.00">
        <pitch>
          <step>B</step>
          <alter>-1</alter>
          <octave>3</octave>
          </pitch>
        <duration>2</duration>
        <voice>1</voice>
        <type>quarter</type>
        <stem>up</stem>
        <lyric number="1" default-x="6.58" default-y="-65.80" relative-y="-30.00">
          <syllabic>single</syllabic>
          <text font-weight="bold">aa</text>
          </lyric>
        <lyric number="2" default-x="4.55" default-y="-98.92" relative-y="-30.00">
          <syllabic>single</syllabic>
          <text font-size="14">'n</text>
          </lyric>
        </note>
      <note default-x="349.46" default-y="-65.00">
        <pitch>
          <step>G</step>
          <octave>3</octave>
          </pitch>
        <duration>2</duration>
        <voice>1</voice>
        <type>quarter</type>
        <stem>up</stem>
        <lyric number="1" default-x="6.58" default-y="-65.80" relative-y="-30.00">
          <syllabic>single</syllabic>
          <text font-weight="bold">aa</text>
          </lyric>
        <lyric number="2" default-x="4.13" default-y="-98.92" relative-y="-30.00">
          <syllabic>single</syllabic>
          <text font-size="14">'P</text>
          </lyric>
        </note>
      <note default-x="416.59" default-y="-55.00">
        <pitch>
          <step>B</step>
          <alter>-1</alter>
          <octave>3</octave>
          </pitch>
        <duration>2</duration>
        <voice>1</voice>
        <type>quarter</type>
        <stem>up</stem>
        <lyric number="1" default-x="6.58" default-y="-65.80" relative-y="-30.00">
          <syllabic>single</syllabic>
          <text font-weight="bold">ye</text>
          </lyric>
        <lyric number="2" default-x="4.55" default-y="-98.92" relative-y="-30.00">
          <syllabic>single</syllabic>
          <text font-size="14">'n</text>
          </lyric>
        </note>
      <note default-x="483.73" default-y="-50.00">
        <pitch>
          <step>C</step>
          <octave>4</octave>
          </pitch>
        <duration>2</duration>
        <voice>1</voice>
        <type>quarter</type>
        <stem>up</stem>
        <lyric number="1" default-x="6.58" default-y="-65.80" relative-y="-30.00">
          <syllabic>single</syllabic>
          <text font-weight="bold">e</text>
          </lyric>
        <lyric number="2" default-x="6.58" default-y="-98.92" relative-y="-30.00">
          <syllabic>single</syllabic>
          <text font-size="14">S</text>
          </lyric>
        </note>
      <barline location="middle">
        <bar-style>dashed</bar-style>
        </barline>
      <note default-x="571.86" default-y="-40.00">
        <pitch>
          <step>E</step>
          <octave>4</octave>
          </pitch>
        <duration>2</duration>
        <voice>1</voice>
        <type>quarter</type>
        <accidental>natural</accidental>
        <stem>up</stem>
        <lyric number="1" default-x="12.08" default-y="-65.80" relative-y="-30.00">
          <syllabic>single</syllabic>
          <text font-weight="bold">e/</text>
          </lyric>
        <lyric number="2" default-x="11.28" default-y="-98.92" relative-y="-30.00">
          <syllabic>single</syllabic>
          <text font-size="14">G/</text>
          </lyric>
        </note>
      <note default-x="639.00" default-y="-40.00">
        <pitch>
          <step>E</step>
          <octave>4</octave>
          </pitch>
        <duration>2</duration>
        <voice>1</voice>
        <type>quarter</type>
        <stem>up</stem>
        <lyric number="1" default-x="6.58" default-y="-65.80" relative-y="-30.00">
          <syllabic>single</syllabic>
          <text font-weight="bold">a</text>
          </lyric>
        <lyric number="2" default-x="6.58" default-y="-98.92" relative-y="-30.00">
          <syllabic>single</syllabic>
          <text font-size="14">G</text>
          </lyric>
        </note>
      <note default-x="706.13" default-y="-40.00">
        <pitch>
          <step>E</step>
          <octave>4</octave>
          </pitch>
        <duration>2</duration>
        <voice>1</voice>
        <type>quarter</type>
        <stem>up</stem>
        <lyric number="1" default-x="6.58" default-y="-65.80" relative-y="-30.00">
          <syllabic>single</syllabic>
          <text font-weight="bold">ti</text>
          </lyric>
        <lyric number="2" default-x="6.58" default-y="-98.92" relative-y="-30.00">
          <syllabic>single</syllabic>
          <text font-size="14">G</text>
          </lyric>
        </note>
      <note default-x="773.27" default-y="-40.00">
        <pitch>
          <step>E</step>
          <octave>4</octave>
          </pitch>
        <duration>2</duration>
        <voice>1</voice>
        <type>quarter</type>
        <stem>up</stem>
        <lyric number="1" default-x="6.58" default-y="-65.80" relative-y="-30.00">
          <syllabic>single</syllabic>
          <text font-weight="bold">ma</text>
          </lyric>
        <lyric number="2" default-x="6.58" default-y="-98.92" relative-y="-30.00">
          <syllabic>single</syllabic>
          <text font-size="14">G</text>
          </lyric>
        </note>
      <note default-x="840.40" default-y="-40.00">
        <pitch>
          <step>E</step>
          <octave>4</octave>
          </pitch>
        <duration>2</duration>
        <voice>1</voice>
        <type>quarter</type>
        <stem>up</stem>
        <lyric number="1" default-x="6.58" default-y="-65.80" relative-y="-30.00">
          <syllabic>single</syllabic>
          <text font-weight="bold">na</text>
          </lyric>
        <lyric number="2" default-x="6.58" default-y="-98.92" relative-y="-30.00">
          <syllabic>single</syllabic>
          <text font-size="14">G</text>
          </lyric>
        </note>
      <note default-x="907.54" default-y="-50.00">
        <pitch>
          <step>C</step>
          <octave>4</octave>
          </pitch>
        <duration>2</duration>
        <voice>1</voice>
        <type>quarter</type>
        <stem>up</stem>
        <lyric number="1" default-x="6.58" default-y="-65.80" relative-y="-30.00">
          <syllabic>single</syllabic>
          <text font-weight="bold">a</text>
          </lyric>
        <lyric number="2" default-x="9.86" default-y="-98.92" relative-y="-30.00">
          <syllabic>single</syllabic>
          <text font-size="14">(S),</text>
          </lyric>
        </note>
      <note default-x="974.67" default-y="-35.00">
        <pitch>
          <step>F</step>
          <octave>4</octave>
          </pitch>
        <duration>2</duration>
        <voice>1</voice>
        <type>quarter</type>
        <stem>up</stem>
        <lyric number="1" default-x="6.58" default-y="-65.80" relative-y="-30.00">
          <syllabic>single</syllabic>
          <text font-weight="bold">su</text>
          </lyric>
        <lyric number="2" default-x="6.58" default-y="-98.92" relative-y="-30.00">
          <syllabic>single</syllabic>
          <text font-size="14">m</text>
          </lyric>
        </note>
      <note default-x="1041.81" default-y="-30.00">
        <pitch>
          <step>G</step>
          <octave>4</octave>
          </pitch>
        <duration>2</duration>
        <voice>1</voice>
        <type>quarter</type>
        <stem>up</stem>
        <lyric number="1" default-x="6.58" default-y="-65.80" relative-y="-30.00">
          <syllabic>single</syllabic>
          <text font-weight="bold">kha</text>
          </lyric>
        <lyric number="2" default-x="6.58" default-y="-98.92" relative-y="-30.00">
          <syllabic>single</syllabic>
          <text font-size="14">P</text>
          </lyric>
        </note>
      </measure>
    <measure number="4" width="1110.54">
      <print new-system="yes">
        <system-layout>
          <system-margins>
            <left-margin>0.00</left-margin>
            <right-margin>-0.00</right-margin>
            </system-margins>
          <system-distance>133.75</system-distance>
          </system-layout>
        </print>
      <note default-x="87.21" default-y="-35.00">
        <pitch>
          <step>F</step>
          <octave>4</octave>
          </pitch>
        <duration>4</duration>
        <voice>1</voice>
        <type>half</type>
        <stem>up</stem>
        <lyric number="1" default-x="6.22" default-y="-55.80" relative-y="-30.00">
          <syllabic>single</syllabic>
          <text font-weight="bold">paa</text>
          </lyric>
        <lyric number="2" default-x="9.12" default-y="-88.92" relative-y="-30.00">
          <syllabic>single</syllabic>
          <text font-size="14">m,</text>
          </lyric>
        </note>
      <note default-x="192.87" default-y="-40.00">
        <pitch>
          <step>E</step>
          <octave>4</octave>
          </pitch>
        <duration>2</duration>
        <voice>1</voice>
        <type>quarter</type>
        <accidental>natural</accidental>
        <stem>up</stem>
        <lyric number="1" default-x="6.58" default-y="-55.80" relative-y="-30.00">
          <syllabic>single</syllabic>
          <text font-weight="bold">aa</text>
          </lyric>
        <lyric number="2" default-x="6.58" default-y="-88.92" relative-y="-30.00">
          <syllabic>single</syllabic>
          <text font-size="14">G</text>
          </lyric>
        </note>
      <note default-x="258.68" default-y="-35.00">
        <pitch>
          <step>F</step>
          <octave>4</octave>
          </pitch>
        <duration>2</duration>
        <voice>1</voice>
        <type>quarter</type>
        <stem>up</stem>
        <lyric number="1" default-x="6.58" default-y="-55.80" relative-y="-30.00">
          <syllabic>single</syllabic>
          <text font-weight="bold">aa</text>
          </lyric>
        <lyric number="2" default-x="6.58" default-y="-88.92" relative-y="-30.00">
          <syllabic>single</syllabic>
          <text font-size="14">m</text>
          </lyric>
        </note>
      <note default-x="324.14" default-y="-40.00">
        <pitch>
          <step>E</step>
          <alter>-1</alter>
          <octave>4</octave>
          </pitch>
        <duration>4</duration>
        <voice>1</voice>
        <type>half</type>
        <accidental>flat</accidental>
        <stem>up</stem>
        <lyric number="1" default-x="6.22" default-y="-55.80" relative-y="-30.00">
          <syllabic>single</syllabic>
          <text font-weight="bold">aa</text>
          </lyric>
        <lyric number="2" default-x="9.28" default-y="-88.92" relative-y="-30.00">
          <syllabic>single</syllabic>
          <text font-size="14">g,</text>
          </lyric>
        </note>
      <note default-x="429.80" default-y="-55.00">
        <pitch>
          <step>B</step>
          <alter>-1</alter>
          <octave>3</octave>
          </pitch>
        <duration>2</duration>
        <voice>1</voice>
        <type>quarter</type>
        <stem>up</stem>
        <lyric number="1" default-x="6.58" default-y="-55.80" relative-y="-30.00">
          <syllabic>single</syllabic>
          <text font-weight="bold">ye</text>
          </lyric>
        <lyric number="2" default-x="4.55" default-y="-88.92" relative-y="-30.00">
          <syllabic>single</syllabic>
          <text font-size="14">'n</text>
          </lyric>
        </note>
      <note default-x="495.62" default-y="-50.00">
        <pitch>
          <step>C</step>
          <octave>4</octave>
          </pitch>
        <duration>2</duration>
        <voice>1</voice>
        <type>quarter</type>
        <stem>up</stem>
        <lyric number="1" default-x="6.58" default-y="-55.80" relative-y="-30.00">
          <syllabic>single</syllabic>
          <text font-weight="bold">e</text>
          </lyric>
        <lyric number="2" default-x="6.58" default-y="-88.92" relative-y="-30.00">
          <syllabic>single</syllabic>
          <text font-size="14">S</text>
          </lyric>
        </note>
      <barline location="middle">
        <bar-style>dashed</bar-style>
        </barline>
      <note default-x="582.43" default-y="-40.00">
        <pitch>
          <step>E</step>
          <octave>4</octave>
          </pitch>
        <duration>2</duration>
        <voice>1</voice>
        <type>quarter</type>
        <accidental>natural</accidental>
        <stem>up</stem>
        <lyric number="1" default-x="12.08" default-y="-55.80" relative-y="-30.00">
          <syllabic>single</syllabic>
          <text font-weight="bold">e/</text>
          </lyric>
        <lyric number="2" default-x="11.28" default-y="-88.92" relative-y="-30.00">
          <syllabic>single</syllabic>
          <text font-size="14">G/</text>
          </lyric>
        </note>
      <note default-x="648.24" default-y="-40.00">
        <pitch>
          <step>E</step>
          <octave>4</octave>
          </pitch>
        <duration>2</duration>
        <voice>1</voice>
        <type>quarter</type>
        <stem>up</stem>
        <lyric number="1" default-x="6.58" default-y="-55.80" relative-y="-30.00">
          <syllabic>single</syllabic>
          <text font-weight="bold">a</text>
          </lyric>
        <lyric number="2" default-x="6.58" default-y="-88.92" relative-y="-30.00">
          <syllabic>single</syllabic>
          <text font-size="14">G</text>
          </lyric>
        </note>
      <note default-x="714.06" default-y="-40.00">
        <pitch>
          <step>E</step>
          <octave>4</octave>
          </pitch>
        <duration>2</duration>
        <voice>1</voice>
        <type>quarter</type>
        <stem>up</stem>
        <lyric number="1" default-x="6.58" default-y="-55.80" relative-y="-30.00">
          <syllabic>single</syllabic>
          <text font-weight="bold">ti</text>
          </lyric>
        <lyric number="2" default-x="6.58" default-y="-88.92" relative-y="-30.00">
          <syllabic>single</syllabic>
          <text font-size="14">G</text>
          </lyric>
        </note>
      <note default-x="779.87" default-y="-40.00">
        <pitch>
          <step>E</step>
          <octave>4</octave>
          </pitch>
        <duration>2</duration>
        <voice>1</voice>
        <type>quarter</type>
        <stem>up</stem>
        <lyric number="1" default-x="6.58" default-y="-55.80" relative-y="-30.00">
          <syllabic>single</syllabic>
          <text font-weight="bold">ma</text>
          </lyric>
        <lyric number="2" default-x="6.58" default-y="-88.92" relative-y="-30.00">
          <syllabic>single</syllabic>
          <text font-size="14">G</text>
          </lyric>
        </note>
      <note default-x="845.69" default-y="-40.00">
        <pitch>
          <step>E</step>
          <octave>4</octave>
          </pitch>
        <duration>2</duration>
        <voice>1</voice>
        <type>quarter</type>
        <stem>up</stem>
        <lyric number="1" default-x="6.58" default-y="-55.80" relative-y="-30.00">
          <syllabic>single</syllabic>
          <text font-weight="bold">na</text>
          </lyric>
        <lyric number="2" default-x="6.58" default-y="-88.92" relative-y="-30.00">
          <syllabic>single</syllabic>
          <text font-size="14">G</text>
          </lyric>
        </note>
      <note default-x="911.50" default-y="-50.00">
        <pitch>
          <step>C</step>
          <octave>4</octave>
          </pitch>
        <duration>2</duration>
        <voice>1</voice>
        <type>quarter</type>
        <stem>up</stem>
        <lyric number="1" default-x="6.58" default-y="-55.80" relative-y="-30.00">
          <syllabic>single</syllabic>
          <text font-weight="bold">a</text>
          </lyric>
        <lyric number="2" default-x="9.86" default-y="-88.92" relative-y="-30.00">
          <syllabic>single</syllabic>
          <text font-size="14">(S),</text>
          </lyric>
        </note>
      <note default-x="977.32" default-y="-35.00">
        <pitch>
          <step>F</step>
          <octave>4</octave>
          </pitch>
        <duration>2</duration>
        <voice>1</voice>
        <type>quarter</type>
        <stem>up</stem>
        <lyric number="1" default-x="6.58" default-y="-55.80" relative-y="-30.00">
          <syllabic>single</syllabic>
          <text font-weight="bold">su</text>
          </lyric>
        <lyric number="2" default-x="6.58" default-y="-88.92" relative-y="-30.00">
          <syllabic>single</syllabic>
          <text font-size="14">m</text>
          </lyric>
        </note>
      <note default-x="1043.13" default-y="-30.00">
        <pitch>
          <step>G</step>
          <octave>4</octave>
          </pitch>
        <duration>2</duration>
        <voice>1</voice>
        <type>quarter</type>
        <stem>up</stem>
        <lyric number="1" default-x="6.58" default-y="-55.80" relative-y="-30.00">
          <syllabic>single</syllabic>
          <text font-weight="bold">kha</text>
          </lyric>
        <lyric number="2" default-x="6.58" default-y="-88.92" relative-y="-30.00">
          <syllabic>single</syllabic>
          <text font-size="14">P</text>
          </lyric>
        </note>
      </measure>
    <measure number="5" width="1110.54">
      <print new-system="yes">
        <system-layout>
          <system-margins>
            <left-margin>0.00</left-margin>
            <right-margin>-0.00</right-margin>
            </system-margins>
          <system-distance>133.75</system-distance>
          </system-layout>
        </print>
      <note default-x="87.21" default-y="-35.00">
        <pitch>
          <step>F</step>
          <octave>4</octave>
          </pitch>
        <duration>4</duration>
        <voice>1</voice>
        <type>half</type>
        <stem>up</stem>
        <lyric number="1" default-x="6.22" default-y="-57.85" relative-y="-30.00">
          <syllabic>single</syllabic>
          <text font-weight="bold">paa</text>
          </lyric>
        <lyric number="2" default-x="9.12" default-y="-90.97" relative-y="-30.00">
          <syllabic>single</syllabic>
          <text font-size="14">m,</text>
          </lyric>
        </note>
      <note default-x="217.27" default-y="-40.00">
        <pitch>
          <step>E</step>
          <octave>4</octave>
          </pitch>
        <duration>2</duration>
        <voice>1</voice>
        <type>quarter</type>
        <accidental>natural</accidental>
        <stem>up</stem>
        <lyric number="1" default-x="6.58" default-y="-57.85" relative-y="-30.00">
          <syllabic>single</syllabic>
          <text font-weight="bold">aa</text>
          </lyric>
        <lyric number="2" default-x="6.58" default-y="-90.97" relative-y="-30.00">
          <syllabic>single</syllabic>
          <text font-size="14">G</text>
          </lyric>
        </note>
      <note default-x="298.33" default-y="-35.00">
        <pitch>
          <step>F</step>
          <octave>4</octave>
          </pitch>
        <duration>2</duration>
        <voice>1</voice>
        <type>quarter</type>
        <stem>up</stem>
        <lyric number="1" default-x="6.58" default-y="-57.85" relative-y="-30.00">
          <syllabic>single</syllabic>
          <text font-weight="bold">aa</text>
          </lyric>
        <lyric number="2" default-x="6.58" default-y="-90.97" relative-y="-30.00">
          <syllabic>single</syllabic>
          <text font-size="14">m</text>
          </lyric>
        </note>
      <note default-x="379.03" default-y="-40.00">
        <pitch>
          <step>E</step>
          <alter>-1</alter>
          <octave>4</octave>
          </pitch>
        <duration>4</duration>
        <voice>1</voice>
        <type>half</type>
        <accidental>flat</accidental>
        <stem>up</stem>
        <lyric number="1" default-x="6.22" default-y="-57.85" relative-y="-30.00">
          <syllabic>single</syllabic>
          <text font-weight="bold">aa</text>
          </lyric>
        <lyric number="2" default-x="6.22" default-y="-90.97" relative-y="-30.00">
          <syllabic>single</syllabic>
          <text font-size="14">g</text>
          </lyric>
        </note>
      <note default-x="508.73" default-y="-50.00">
        <pitch>
          <step>C</step>
          <octave>4</octave>
          </pitch>
        <duration>4</duration>
        <voice>1</voice>
        <type>half</type>
        <stem>up</stem>
        <lyric number="1" default-x="11.41" default-y="-57.85" relative-y="-30.00">
          <syllabic>single</syllabic>
          <text font-weight="bold">ye/</text>
          </lyric>
        <lyric number="2" default-x="10.82" default-y="-90.97" relative-y="-30.00">
          <syllabic>single</syllabic>
          <text font-size="14">S/</text>
          </lyric>
        </note>
      <note>
        <rest/>
        <duration>2</duration>
        <voice>1</voice>
        <type>quarter</type>
        </note>
      <note>
        <rest/>
        <duration>2</duration>
        <voice>1</voice>
        <type>quarter</type>
        </note>
      <note>
        <rest/>
        <duration>4</duration>
        <voice>1</voice>
        <type>half</type>
        </note>
      <note>
        <rest/>
        <duration>8</duration>
        <voice>1</voice>
        <type>whole</type>
        </note>
      </measure>
    <measure number="6" width="1110.54">
      <print new-system="yes">
        <system-layout>
          <system-margins>
            <left-margin>0.00</left-margin>
            <right-margin>-0.00</right-margin>
            </system-margins>
          <system-distance>133.75</system-distance>
          </system-layout>
        </print>
      <note>
        <rest/>
        <duration>2</duration>
        <voice>1</voice>
        <type>quarter</type>
        </note>
      <note>
        <rest/>
        <duration>2</duration>
        <voice>1</voice>
        <type>quarter</type>
        </note>
      <note>
        <rest/>
        <duration>2</duration>
        <voice>1</voice>
        <type>quarter</type>
        </note>
      <note>
        <rest/>
        <duration>2</duration>
        <voice>1</voice>
        <type>quarter</type>
        </note>
      <note>
        <rest/>
        <duration>2</duration>
        <voice>1</voice>
        <type>quarter</type>
        </note>
      <note>
        <rest/>
        <duration>2</duration>
        <voice>1</voice>
        <type>quarter</type>
        </note>
      <note>
        <rest/>
        <duration>2</duration>
        <voice>1</voice>
        <type>quarter</type>
        </note>
      <note>
        <rest/>
        <duration>2</duration>
        <voice>1</voice>
        <type>quarter</type>
        </note>
      <barline location="middle">
        <bar-style>dashed</bar-style>
        </barline>
      <note>
        <rest/>
        <duration>2</duration>
        <voice>1</voice>
        <type>quarter</type>
        </note>
      <note default-x="705.64" default-y="-40.00">
        <pitch>
          <step>E</step>
          <octave>4</octave>
          </pitch>
        <duration>1</duration>
        <voice>1</voice>
        <type>eighth</type>
        <accidental>natural</accidental>
        <stem>up</stem>
        <lyric number="1" default-x="6.58" default-y="-57.65" relative-y="-30.00">
          <syllabic>single</syllabic>
          <text font-weight="bold">ma</text>
          </lyric>
        <lyric number="2" default-x="6.58" default-y="-90.77" relative-y="-30.00">
          <syllabic>single</syllabic>
          <text font-size="14">G</text>
          </lyric>
        </note>
      <note default-x="747.65" default-y="-35.00">
        <pitch>
          <step>F</step>
          <octave>4</octave>
          </pitch>
        <duration>2</duration>
        <voice>1</voice>
        <type>quarter</type>
        <stem>up</stem>
        <lyric number="1" default-x="6.58" default-y="-57.65" relative-y="-30.00">
          <syllabic>single</syllabic>
          <text font-weight="bold">n</text>
          </lyric>
        <lyric number="2" default-x="6.58" default-y="-90.77" relative-y="-30.00">
          <syllabic>single</syllabic>
          <text font-size="14">m</text>
          </lyric>
        </note>
      <note default-x="814.87" default-y="-30.00">
        <pitch>
          <step>G</step>
          <octave>4</octave>
          </pitch>
        <duration>2</duration>
        <voice>1</voice>
        <type>quarter</type>
        <stem>up</stem>
        <lyric number="1" default-x="6.58" default-y="-57.65" relative-y="-30.00">
          <syllabic>single</syllabic>
          <text font-weight="bold">ga</text>
          </lyric>
        <lyric number="2" default-x="6.58" default-y="-90.77" relative-y="-30.00">
          <syllabic>single</syllabic>
          <text font-size="14">P</text>
          </lyric>
        </note>
      <note default-x="882.09" default-y="-20.00">
        <pitch>
          <step>B</step>
          <alter>-1</alter>
          <octave>4</octave>
          </pitch>
        <duration>1</duration>
        <voice>1</voice>
        <type>eighth</type>
        <stem>down</stem>
        <lyric number="1" default-x="6.58" default-y="-57.65" relative-y="-30.00">
          <syllabic>single</syllabic>
          <text font-weight="bold">la</text>
          </lyric>
        <lyric number="2" default-x="6.58" default-y="-90.77" relative-y="-30.00">
          <syllabic>single</syllabic>
          <text font-size="14">n</text>
          </lyric>
        </note>
      <note default-x="923.74" default-y="-15.00">
        <pitch>
          <step>C</step>
          <octave>5</octave>
          </pitch>
        <duration>4</duration>
        <voice>1</voice>
        <type>half</type>
        <stem>down</stem>
        <lyric number="1" default-x="6.94" default-y="-57.65" relative-y="-30.00">
          <syllabic>single</syllabic>
          <text font-weight="bold">gaa</text>
          </lyric>
        <lyric number="2" default-x="9.54" default-y="-90.77" relative-y="-30.00">
          <syllabic>single</syllabic>
          <text font-size="14">S'</text>
          </lyric>
        </note>
      <note default-x="1016.16" default-y="-15.00">
        <pitch>
          <step>C</step>
          <octave>5</octave>
          </pitch>
        <duration>4</duration>
        <voice>1</voice>
        <type>half</type>
        <stem>down</stem>
        <lyric number="1" default-x="10.93" default-y="-57.65" relative-y="-30.00">
          <syllabic>single</syllabic>
          <text font-weight="bold">o,</text>
          </lyric>
        <lyric number="2" default-x="12.94" default-y="-90.77" relative-y="-30.00">
          <syllabic>single</syllabic>
          <text font-size="14">S',</text>
          </lyric>
        </note>
      </measure>
    <measure number="7" width="1110.54">
      <print new-system="yes">
        <system-layout>
          <system-margins>
            <left-margin>0.00</left-margin>
            <right-margin>-0.00</right-margin>
            </system-margins>
          <system-distance>133.75</system-distance>
          </system-layout>
        </print>
      <note>
        <rest/>
        <duration>2</duration>
        <voice>1</voice>
        <type>quarter</type>
        </note>
      <note default-x="159.89" default-y="-20.00">
        <pitch>
          <step>B</step>
          <alter>-1</alter>
          <octave>4</octave>
          </pitch>
        <duration>1</duration>
        <voice>1</voice>
        <type>eighth</type>
        <stem>down</stem>
        <lyric number="1" default-x="6.58" default-y="-59.91" relative-y="-30.00">
          <syllabic>single</syllabic>
          <text font-weight="bold">cho</text>
          </lyric>
        <lyric number="2" default-x="6.58" default-y="-93.02" relative-y="-30.00">
          <syllabic>single</syllabic>
          <text font-size="14">n</text>
          </lyric>
        </note>
      <note default-x="204.72" default-y="-15.00">
        <pitch>
          <step>C</step>
          <octave>5</octave>
          </pitch>
        <duration>2</duration>
        <voice>1</voice>
        <type>quarter</type>
        <stem>down</stem>
        <lyric number="1" default-x="6.58" default-y="-59.91" relative-y="-30.00">
          <syllabic>single</syllabic>
          <text font-weight="bold">o</text>
          </lyric>
        <lyric number="2" default-x="9.18" default-y="-93.02" relative-y="-30.00">
          <syllabic>single</syllabic>
          <text font-size="14">S'</text>
          </lyric>
        </note>
      <note default-x="276.47" default-y="-20.00">
        <pitch>
          <step>B</step>
          <alter>-1</alter>
          <octave>4</octave>
          </pitch>
        <duration>2</duration>
        <voice>1</voice>
        <type>quarter</type>
        <stem>down</stem>
        <lyric number="1" default-x="6.58" default-y="-59.91" relative-y="-30.00">
          <syllabic>single</syllabic>
          <text font-weight="bold">ka</text>
          </lyric>
        <lyric number="2" default-x="6.58" default-y="-93.02" relative-y="-30.00">
          <syllabic>single</syllabic>
          <text font-size="14">n</text>
          </lyric>
        </note>
      <note default-x="348.21" default-y="-30.00">
        <pitch>
          <step>G</step>
          <octave>4</octave>
          </pitch>
        <duration>1</duration>
        <voice>1</voice>
        <type>eighth</type>
        <stem>up</stem>
        <lyric number="1" default-x="6.58" default-y="-59.91" relative-y="-30.00">
          <syllabic>single</syllabic>
          <text font-weight="bold">pu</text>
          </lyric>
        <lyric number="2" default-x="6.58" default-y="-93.02" relative-y="-30.00">
          <syllabic>single</syllabic>
          <text font-size="14">P</text>
          </lyric>
        </note>
      <note default-x="392.69" default-y="-35.00">
        <pitch>
          <step>F</step>
          <octave>4</octave>
          </pitch>
        <duration>4</duration>
        <voice>1</voice>
        <type>half</type>
        <stem>up</stem>
        <lyric number="1" default-x="6.22" default-y="-59.91" relative-y="-30.00">
          <syllabic>single</syllabic>
          <text font-weight="bold">raa</text>
          </lyric>
        <lyric number="2" default-x="6.22" default-y="-93.02" relative-y="-30.00">
          <syllabic>single</syllabic>
          <text font-size="14">m</text>
          </lyric>
        </note>
      <note default-x="491.33" default-y="-40.00">
        <pitch>
          <step>E</step>
          <octave>4</octave>
          </pitch>
        <duration>4</duration>
        <voice>1</voice>
        <type>half</type>
        <accidental>natural</accidental>
        <stem>up</stem>
        <notations>
          <slur type="start" placement="below" number="1"/>
          </notations>
        <lyric number="1" default-x="6.22" default-y="-59.91" relative-y="-30.00">
          <syllabic>single</syllabic>
          <text font-weight="bold">o</text>
          </lyric>
        <lyric number="2" default-x="6.22" default-y="-93.02" relative-y="-30.00">
          <syllabic>single</syllabic>
          <text font-size="14">G</text>
          </lyric>
        </note>
      <barline location="middle">
        <bar-style>dashed</bar-style>
        </barline>
      <note default-x="606.75" default-y="-40.00">
        <pitch>
          <step>E</step>
          <octave>4</octave>
          </pitch>
        <duration>2</duration>
        <voice>1</voice>
        <type>quarter</type>
        <stem>up</stem>
        <notations>
          <slur type="stop" number="1"/>
          </notations>
        <lyric number="1" default-x="6.58" default-y="-59.91" relative-y="-30.00">
          <syllabic>single</syllabic>
          <text font-weight="bold">~/</text>
          </lyric>
        <lyric number="2" default-x="6.58" default-y="-93.02" relative-y="-30.00">
          <syllabic>single</syllabic>
          <text font-size="14">~/</text>
          </lyric>
        </note>
      <note default-x="678.49" default-y="-40.00">
        <pitch>
          <step>E</step>
          <octave>4</octave>
          </pitch>
        <duration>1</duration>
        <voice>1</voice>
        <type>eighth</type>
        <stem>up</stem>
        <lyric number="1" default-x="6.58" default-y="-59.91" relative-y="-30.00">
          <syllabic>single</syllabic>
          <text font-weight="bold">ma</text>
          </lyric>
        <lyric number="2" default-x="6.58" default-y="-93.02" relative-y="-30.00">
          <syllabic>single</syllabic>
          <text font-size="14">G</text>
          </lyric>
        </note>
      <note default-x="723.33" default-y="-35.00">
        <pitch>
          <step>F</step>
          <octave>4</octave>
          </pitch>
        <duration>2</duration>
        <voice>1</voice>
        <type>quarter</type>
        <stem>up</stem>
        <lyric number="1" default-x="6.58" default-y="-59.91" relative-y="-30.00">
          <syllabic>single</syllabic>
          <text font-weight="bold">n</text>
          </lyric>
        <lyric number="2" default-x="6.58" default-y="-93.02" relative-y="-30.00">
          <syllabic>single</syllabic>
          <text font-size="14">m</text>
          </lyric>
        </note>
      <note default-x="795.07" default-y="-30.00">
        <pitch>
          <step>G</step>
          <octave>4</octave>
          </pitch>
        <duration>2</duration>
        <voice>1</voice>
        <type>quarter</type>
        <stem>up</stem>
        <lyric number="1" default-x="6.58" default-y="-59.91" relative-y="-30.00">
          <syllabic>single</syllabic>
          <text font-weight="bold">ga</text>
          </lyric>
        <lyric number="2" default-x="6.58" default-y="-93.02" relative-y="-30.00">
          <syllabic>single</syllabic>
          <text font-size="14">P</text>
          </lyric>
        </note>
      <note default-x="866.82" default-y="-20.00">
        <pitch>
          <step>B</step>
          <alter>-1</alter>
          <octave>4</octave>
          </pitch>
        <duration>1</duration>
        <voice>1</voice>
        <type>eighth</type>
        <stem>down</stem>
        <lyric number="1" default-x="6.58" default-y="-59.91" relative-y="-30.00">
          <syllabic>single</syllabic>
          <text font-weight="bold">la</text>
          </lyric>
        <lyric number="2" default-x="6.58" default-y="-93.02" relative-y="-30.00">
          <syllabic>single</syllabic>
          <text font-size="14">n</text>
          </lyric>
        </note>
      <note default-x="911.29" default-y="-15.00">
        <pitch>
          <step>C</step>
          <octave>5</octave>
          </pitch>
        <duration>4</duration>
        <voice>1</voice>
        <type>half</type>
        <stem>down</stem>
        <lyric number="1" default-x="6.94" default-y="-59.91" relative-y="-30.00">
          <syllabic>single</syllabic>
          <text font-weight="bold">gaa</text>
          </lyric>
        <lyric number="2" default-x="9.54" default-y="-93.02" relative-y="-30.00">
          <syllabic>single</syllabic>
          <text font-size="14">S'</text>
          </lyric>
        </note>
      <note default-x="1009.94" default-y="-15.00">
        <pitch>
          <step>C</step>
          <octave>5</octave>
          </pitch>
        <duration>4</duration>
        <voice>1</voice>
        <type>half</type>
        <stem>down</stem>
        <lyric number="1" default-x="10.93" default-y="-59.91" relative-y="-30.00">
          <syllabic>single</syllabic>
          <text font-weight="bold">o,</text>
          </lyric>
        <lyric number="2" default-x="12.94" default-y="-93.02" relative-y="-30.00">
          <syllabic>single</syllabic>
          <text font-size="14">S',</text>
          </lyric>
        </note>
      </measure>
    <measure number="8" width="1110.54">
      <print new-system="yes">
        <system-layout>
          <system-margins>
            <left-margin>0.00</left-margin>
            <right-margin>-0.00</right-margin>
            </system-margins>
          <system-distance>133.75</system-distance>
          </system-layout>
        </print>
      <note>
        <rest/>
        <duration>2</duration>
        <voice>1</voice>
        <type>quarter</type>
        </note>
      <note default-x="148.74" default-y="-20.00">
        <pitch>
          <step>B</step>
          <alter>-1</alter>
          <octave>4</octave>
          </pitch>
        <duration>1</duration>
        <voice>1</voice>
        <type>eighth</type>
        <stem>down</stem>
        <lyric number="1" default-x="6.58" default-y="-60.70" relative-y="-30.00">
          <syllabic>single</syllabic>
          <text font-weight="bold">cho</text>
          </lyric>
        <lyric number="2" default-x="6.58" default-y="-93.82" relative-y="-30.00">
          <syllabic>single</syllabic>
          <text font-size="14">n</text>
          </lyric>
        </note>
      <note default-x="186.60" default-y="-15.00">
        <pitch>
          <step>C</step>
          <octave>5</octave>
          </pitch>
        <duration>2</duration>
        <voice>1</voice>
        <type>quarter</type>
        <stem>down</stem>
        <lyric number="1" default-x="6.58" default-y="-60.70" relative-y="-30.00">
          <syllabic>single</syllabic>
          <text font-weight="bold">o</text>
          </lyric>
        <lyric number="2" default-x="9.18" default-y="-93.82" relative-y="-30.00">
          <syllabic>single</syllabic>
          <text font-size="14">S'</text>
          </lyric>
        </note>
      <note default-x="247.20" default-y="-20.00">
        <pitch>
          <step>B</step>
          <alter>-1</alter>
          <octave>4</octave>
          </pitch>
        <duration>2</duration>
        <voice>1</voice>
        <type>quarter</type>
        <stem>down</stem>
        <lyric number="1" default-x="6.58" default-y="-60.70" relative-y="-30.00">
          <syllabic>single</syllabic>
          <text font-weight="bold">ka</text>
          </lyric>
        <lyric number="2" default-x="6.58" default-y="-93.82" relative-y="-30.00">
          <syllabic>single</syllabic>
          <text font-size="14">n</text>
          </lyric>
        </note>
      <note default-x="307.79" default-y="-30.00">
        <pitch>
          <step>G</step>
          <octave>4</octave>
          </pitch>
        <duration>1</duration>
        <voice>1</voice>
        <type>eighth</type>
        <stem>up</stem>
        <lyric number="1" default-x="6.58" default-y="-60.70" relative-y="-30.00">
          <syllabic>single</syllabic>
          <text font-weight="bold">pu</text>
          </lyric>
        <lyric number="2" default-x="6.58" default-y="-93.82" relative-y="-30.00">
          <syllabic>single</syllabic>
          <text font-size="14">P</text>
          </lyric>
        </note>
      <note default-x="350.28" default-y="-35.00">
        <pitch>
          <step>F</step>
          <octave>4</octave>
          </pitch>
        <duration>2</duration>
        <voice>1</voice>
        <type>quarter</type>
        <stem>up</stem>
        <lyric number="1" default-x="6.58" default-y="-60.70" relative-y="-30.00">
          <syllabic>single</syllabic>
          <text font-weight="bold">raa</text>
          </lyric>
        <lyric number="2" default-x="6.58" default-y="-93.82" relative-y="-30.00">
          <syllabic>single</syllabic>
          <text font-size="14">m</text>
          </lyric>
        </note>
      <note default-x="410.88" default-y="-20.00">
        <pitch>
          <step>B</step>
          <alter>-1</alter>
          <octave>4</octave>
          </pitch>
        <duration>1</duration>
        <voice>1</voice>
        <type>eighth</type>
        <stem>up</stem>
        <beam number="1">begin</beam>
        <lyric number="1" default-x="6.58" default-y="-60.70" relative-y="-30.00">
          <syllabic>single</syllabic>
          <text font-weight="bold">aa</text>
          </lyric>
        <lyric number="2" default-x="6.58" default-y="-93.82" relative-y="-30.00">
          <syllabic>single</syllabic>
          <text font-size="14">n</text>
          </lyric>
        </note>
      <note default-x="448.75" default-y="-30.00">
        <pitch>
          <step>G</step>
          <octave>4</octave>
          </pitch>
        <duration>1</duration>
        <voice>1</voice>
        <type>eighth</type>
        <stem>up</stem>
        <beam number="1">end</beam>
        <lyric number="1" default-x="6.58" default-y="-60.70" relative-y="-30.00">
          <syllabic>single</syllabic>
          <text font-weight="bold">aa</text>
          </lyric>
        <lyric number="2" default-x="6.58" default-y="-93.82" relative-y="-30.00">
          <syllabic>single</syllabic>
          <text font-size="14">P</text>
          </lyric>
        </note>
      <note default-x="486.62" default-y="-35.00">
        <pitch>
          <step>F</step>
          <octave>4</octave>
          </pitch>
        <duration>2</duration>
        <voice>1</voice>
        <type>quarter</type>
        <stem>up</stem>
        <lyric number="1" default-x="6.58" default-y="-60.70" relative-y="-30.00">
          <syllabic>single</syllabic>
          <text font-weight="bold">o</text>
          </lyric>
        <lyric number="2" default-x="6.58" default-y="-93.82" relative-y="-30.00">
          <syllabic>single</syllabic>
          <text font-size="14">m</text>
          </lyric>
        </note>
      <note default-x="547.21" default-y="-40.00">
        <pitch>
          <step>E</step>
          <octave>4</octave>
          </pitch>
        <duration>2</duration>
        <voice>1</voice>
        <type>quarter</type>
        <accidental>natural</accidental>
        <stem>up</stem>
        <notations>
          <slur type="start" placement="below" number="1"/>
          </notations>
        <lyric number="1" default-x="6.58" default-y="-60.70" relative-y="-30.00">
          <syllabic>single</syllabic>
          <text font-weight="bold">o</text>
          </lyric>
        <lyric number="2" default-x="6.58" default-y="-93.82" relative-y="-30.00">
          <syllabic>single</syllabic>
          <text font-size="14">G</text>
          </lyric>
        </note>
      <barline location="middle">
        <bar-style>dashed</bar-style>
        </barline>
      <note default-x="624.21" default-y="-40.00">
        <pitch>
          <step>E</step>
          <octave>4</octave>
          </pitch>
        <duration>2</duration>
        <voice>1</voice>
        <type>quarter</type>
        <stem>up</stem>
        <notations>
          <slur type="stop" number="1"/>
          </notations>
        <lyric number="1" default-x="6.58" default-y="-60.70" relative-y="-30.00">
          <syllabic>single</syllabic>
          <text font-weight="bold">~/</text>
          </lyric>
        <lyric number="2" default-x="6.58" default-y="-93.82" relative-y="-30.00">
          <syllabic>single</syllabic>
          <text font-size="14">~/</text>
          </lyric>
        </note>
      <note default-x="684.81" default-y="-40.00">
        <pitch>
          <step>E</step>
          <octave>4</octave>
          </pitch>
        <duration>2</duration>
        <voice>1</voice>
        <type>quarter</type>
        <stem>up</stem>
        <lyric number="1" default-x="6.58" default-y="-60.70" relative-y="-30.00">
          <syllabic>single</syllabic>
          <text font-weight="bold">pre</text>
          </lyric>
        <lyric number="2" default-x="6.58" default-y="-93.82" relative-y="-30.00">
          <syllabic>single</syllabic>
          <text font-size="14">G</text>
          </lyric>
        </note>
      <note default-x="745.40" default-y="-40.00">
        <pitch>
          <step>E</step>
          <octave>4</octave>
          </pitch>
        <duration>2</duration>
        <voice>1</voice>
        <type>quarter</type>
        <stem>up</stem>
        <lyric number="1" default-x="6.58" default-y="-60.70" relative-y="-30.00">
          <syllabic>single</syllabic>
          <text font-weight="bold">ma</text>
          </lyric>
        <lyric number="2" default-x="6.58" default-y="-93.82" relative-y="-30.00">
          <syllabic>single</syllabic>
          <text font-size="14">G</text>
          </lyric>
        </note>
      <note default-x="805.99" default-y="-40.00">
        <pitch>
          <step>E</step>
          <octave>4</octave>
          </pitch>
        <duration>2</duration>
        <voice>1</voice>
        <type>quarter</type>
        <stem>up</stem>
        <lyric number="1" default-x="6.58" default-y="-60.70" relative-y="-30.00">
          <syllabic>single</syllabic>
          <text font-weight="bold">pi</text>
          </lyric>
        <lyric number="2" default-x="6.58" default-y="-93.82" relative-y="-30.00">
          <syllabic>single</syllabic>
          <text font-size="14">G</text>
          </lyric>
        </note>
      <note default-x="866.58" default-y="-40.00">
        <pitch>
          <step>E</step>
          <octave>4</octave>
          </pitch>
        <duration>2</duration>
        <voice>1</voice>
        <type>quarter</type>
        <stem>up</stem>
        <lyric number="1" default-x="6.58" default-y="-60.70" relative-y="-30.00">
          <syllabic>single</syllabic>
          <text font-weight="bold">yaa</text>
          </lyric>
        <lyric number="2" default-x="6.58" default-y="-93.82" relative-y="-30.00">
          <syllabic>single</syllabic>
          <text font-size="14">G</text>
          </lyric>
        </note>
      <note default-x="927.17" default-y="-50.00">
        <pitch>
          <step>C</step>
          <octave>4</octave>
          </pitch>
        <duration>2</duration>
        <voice>1</voice>
        <type>quarter</type>
        <stem>up</stem>
        <lyric number="1" default-x="6.58" default-y="-60.70" relative-y="-30.00">
          <syllabic>single</syllabic>
          <text font-weight="bold">aa</text>
          </lyric>
        <lyric number="2" default-x="9.86" default-y="-93.82" relative-y="-30.00">
          <syllabic>single</syllabic>
          <text font-size="14">(S),</text>
          </lyric>
        </note>
      <note default-x="987.76" default-y="-35.00">
        <pitch>
          <step>F</step>
          <octave>4</octave>
          </pitch>
        <duration>2</duration>
        <voice>1</voice>
        <type>quarter</type>
        <stem>up</stem>
        <lyric number="1" default-x="6.58" default-y="-60.70" relative-y="-30.00">
          <syllabic>single</syllabic>
          <text font-weight="bold">ha</text>
          </lyric>
        <lyric number="2" default-x="6.58" default-y="-93.82" relative-y="-30.00">
          <syllabic>single</syllabic>
          <text font-size="14">m</text>
          </lyric>
        </note>
      <note default-x="1048.35" default-y="-30.00">
        <pitch>
          <step>G</step>
          <octave>4</octave>
          </pitch>
        <duration>2</duration>
        <voice>1</voice>
        <type>quarter</type>
        <stem>up</stem>
        <lyric number="1" default-x="6.58" default-y="-60.70" relative-y="-30.00">
          <syllabic>single</syllabic>
          <text font-weight="bold">ma</text>
          </lyric>
        <lyric number="2" default-x="6.58" default-y="-93.82" relative-y="-30.00">
          <syllabic>single</syllabic>
          <text font-size="14">P</text>
          </lyric>
        </note>
      </measure>
    <measure number="9" width="1110.54">
      <print new-system="yes">
        <system-layout>
          <system-margins>
            <left-margin>0.00</left-margin>
            <right-margin>-0.00</right-margin>
            </system-margins>
          <system-distance>133.75</system-distance>
          </system-layout>
        </print>
      <note default-x="87.21" default-y="-35.00">
        <pitch>
          <step>F</step>
          <octave>4</octave>
          </pitch>
        <duration>4</duration>
        <voice>1</voice>
        <type>half</type>
        <stem>up</stem>
        <lyric number="1" default-x="6.22" default-y="-55.80" relative-y="-30.00">
          <syllabic>single</syllabic>
          <text font-weight="bold">paa</text>
          </lyric>
        <lyric number="2" default-x="9.12" default-y="-88.92" relative-y="-30.00">
          <syllabic>single</syllabic>
          <text font-size="14">m,</text>
          </lyric>
        </note>
      <note default-x="195.08" default-y="-40.00">
        <pitch>
          <step>E</step>
          <octave>4</octave>
          </pitch>
        <duration>2</duration>
        <voice>1</voice>
        <type>quarter</type>
        <accidental>natural</accidental>
        <stem>up</stem>
        <lyric number="1" default-x="6.58" default-y="-55.80" relative-y="-30.00">
          <syllabic>single</syllabic>
          <text font-weight="bold">aa</text>
          </lyric>
        <lyric number="2" default-x="6.58" default-y="-88.92" relative-y="-30.00">
          <syllabic>single</syllabic>
          <text font-size="14">G</text>
          </lyric>
        </note>
      <note default-x="262.28" default-y="-35.00">
        <pitch>
          <step>F</step>
          <octave>4</octave>
          </pitch>
        <duration>2</duration>
        <voice>1</voice>
        <type>quarter</type>
        <stem>up</stem>
        <lyric number="1" default-x="6.58" default-y="-55.80" relative-y="-30.00">
          <syllabic>single</syllabic>
          <text font-weight="bold">aa</text>
          </lyric>
        <lyric number="2" default-x="6.58" default-y="-88.92" relative-y="-30.00">
          <syllabic>single</syllabic>
          <text font-size="14">m</text>
          </lyric>
        </note>
      <note default-x="329.11" default-y="-40.00">
        <pitch>
          <step>E</step>
          <alter>-1</alter>
          <octave>4</octave>
          </pitch>
        <duration>4</duration>
        <voice>1</voice>
        <type>half</type>
        <accidental>flat</accidental>
        <stem>up</stem>
        <lyric number="1" default-x="6.22" default-y="-55.80" relative-y="-30.00">
          <syllabic>single</syllabic>
          <text font-weight="bold">aa</text>
          </lyric>
        <lyric number="2" default-x="9.28" default-y="-88.92" relative-y="-30.00">
          <syllabic>single</syllabic>
          <text font-size="14">g,</text>
          </lyric>
        </note>
      <note default-x="436.99" default-y="-55.00">
        <pitch>
          <step>B</step>
          <alter>-1</alter>
          <octave>3</octave>
          </pitch>
        <duration>2</duration>
        <voice>1</voice>
        <type>quarter</type>
        <stem>up</stem>
        <lyric number="1" default-x="6.58" default-y="-55.80" relative-y="-30.00">
          <syllabic>single</syllabic>
          <text font-weight="bold">ye</text>
          </lyric>
        <lyric number="2" default-x="4.55" default-y="-88.92" relative-y="-30.00">
          <syllabic>single</syllabic>
          <text font-size="14">'n</text>
          </lyric>
        </note>
      <note default-x="504.18" default-y="-50.00">
        <pitch>
          <step>C</step>
          <octave>4</octave>
          </pitch>
        <duration>2</duration>
        <voice>1</voice>
        <type>quarter</type>
        <stem>up</stem>
        <lyric number="1" default-x="6.58" default-y="-55.80" relative-y="-30.00">
          <syllabic>single</syllabic>
          <text font-weight="bold">e</text>
          </lyric>
        <lyric number="2" default-x="6.58" default-y="-88.92" relative-y="-30.00">
          <syllabic>single</syllabic>
          <text font-size="14">S</text>
          </lyric>
        </note>
      <note default-x="571.38" default-y="-40.00">
        <pitch>
          <step>E</step>
          <octave>4</octave>
          </pitch>
        <duration>2</duration>
        <voice>1</voice>
        <type>quarter</type>
        <accidental>natural</accidental>
        <stem>up</stem>
        <lyric number="1" default-x="12.08" default-y="-55.80" relative-y="-30.00">
          <syllabic>single</syllabic>
          <text font-weight="bold">e/</text>
          </lyric>
        <lyric number="2" default-x="11.28" default-y="-88.92" relative-y="-30.00">
          <syllabic>single</syllabic>
          <text font-size="14">G/</text>
          </lyric>
        </note>
      <note default-x="638.57" default-y="-40.00">
        <pitch>
          <step>E</step>
          <octave>4</octave>
          </pitch>
        <duration>2</duration>
        <voice>1</voice>
        <type>quarter</type>
        <stem>up</stem>
        <lyric number="1" default-x="6.58" default-y="-55.80" relative-y="-30.00">
          <syllabic>single</syllabic>
          <text font-weight="bold">pre</text>
          </lyric>
        <lyric number="2" default-x="6.58" default-y="-88.92" relative-y="-30.00">
          <syllabic>single</syllabic>
          <text font-size="14">G</text>
          </lyric>
        </note>
      <note default-x="705.77" default-y="-40.00">
        <pitch>
          <step>E</step>
          <octave>4</octave>
          </pitch>
        <duration>2</duration>
        <voice>1</voice>
        <type>quarter</type>
        <stem>up</stem>
        <lyric number="1" default-x="6.58" default-y="-55.80" relative-y="-30.00">
          <syllabic>single</syllabic>
          <text font-weight="bold">ma</text>
          </lyric>
        <lyric number="2" default-x="6.58" default-y="-88.92" relative-y="-30.00">
          <syllabic>single</syllabic>
          <text font-size="14">G</text>
          </lyric>
        </note>
      <note default-x="772.97" default-y="-40.00">
        <pitch>
          <step>E</step>
          <octave>4</octave>
          </pitch>
        <duration>2</duration>
        <voice>1</voice>
        <type>quarter</type>
        <stem>up</stem>
        <lyric number="1" default-x="6.58" default-y="-55.80" relative-y="-30.00">
          <syllabic>single</syllabic>
          <text font-weight="bold">pi</text>
          </lyric>
        <lyric number="2" default-x="6.58" default-y="-88.92" relative-y="-30.00">
          <syllabic>single</syllabic>
          <text font-size="14">G</text>
          </lyric>
        </note>
      <note default-x="840.16" default-y="-40.00">
        <pitch>
          <step>E</step>
          <octave>4</octave>
          </pitch>
        <duration>2</duration>
        <voice>1</voice>
        <type>quarter</type>
        <stem>up</stem>
        <lyric number="1" default-x="6.58" default-y="-55.80" relative-y="-30.00">
          <syllabic>single</syllabic>
          <text font-weight="bold">yaa</text>
          </lyric>
        <lyric number="2" default-x="6.58" default-y="-88.92" relative-y="-30.00">
          <syllabic>single</syllabic>
          <text font-size="14">G</text>
          </lyric>
        </note>
      <note default-x="907.36" default-y="-50.00">
        <pitch>
          <step>C</step>
          <octave>4</octave>
          </pitch>
        <duration>2</duration>
        <voice>1</voice>
        <type>quarter</type>
        <stem>up</stem>
        <lyric number="1" default-x="6.58" default-y="-55.80" relative-y="-30.00">
          <syllabic>single</syllabic>
          <text font-weight="bold">aa</text>
          </lyric>
        <lyric number="2" default-x="9.86" default-y="-88.92" relative-y="-30.00">
          <syllabic>single</syllabic>
          <text font-size="14">(S),</text>
          </lyric>
        </note>
      <note default-x="974.55" default-y="-35.00">
        <pitch>
          <step>F</step>
          <octave>4</octave>
          </pitch>
        <duration>2</duration>
        <voice>1</voice>
        <type>quarter</type>
        <stem>up</stem>
        <lyric number="1" default-x="6.58" default-y="-55.80" relative-y="-30.00">
          <syllabic>single</syllabic>
          <text font-weight="bold">ha</text>
          </lyric>
        <lyric number="2" default-x="6.58" default-y="-88.92" relative-y="-30.00">
          <syllabic>single</syllabic>
          <text font-size="14">m</text>
          </lyric>
        </note>
      <note default-x="1041.75" default-y="-30.00">
        <pitch>
          <step>G</step>
          <octave>4</octave>
          </pitch>
        <duration>2</duration>
        <voice>1</voice>
        <type>quarter</type>
        <stem>up</stem>
        <lyric number="1" default-x="6.58" default-y="-55.80" relative-y="-30.00">
          <syllabic>single</syllabic>
          <text font-weight="bold">ma</text>
          </lyric>
        <lyric number="2" default-x="6.58" default-y="-88.92" relative-y="-30.00">
          <syllabic>single</syllabic>
          <text font-size="14">P</text>
          </lyric>
        </note>
      </measure>
    <measure number="10" width="1110.54">
      <print new-system="yes">
        <system-layout>
          <system-margins>
            <left-margin>0.00</left-margin>
            <right-margin>-0.00</right-margin>
            </system-margins>
          <system-distance>133.75</system-distance>
          </system-layout>
        </print>
      <note default-x="87.21" default-y="-35.00">
        <pitch>
          <step>F</step>
          <octave>4</octave>
          </pitch>
        <duration>4</duration>
        <voice>1</voice>
        <type>half</type>
        <stem>up</stem>
        <lyric number="1" default-x="6.22" default-y="-50.65" relative-y="-30.00">
          <syllabic>single</syllabic>
          <text font-weight="bold">paa</text>
          </lyric>
        <lyric number="2" default-x="9.12" default-y="-83.77" relative-y="-30.00">
          <syllabic>single</syllabic>
          <text font-size="14">m,</text>
          </lyric>
        </note>
      <note default-x="214.53" default-y="-40.00">
        <pitch>
          <step>E</step>
          <octave>4</octave>
          </pitch>
        <duration>2</duration>
        <voice>1</voice>
        <type>quarter</type>
        <accidental>natural</accidental>
        <stem>up</stem>
        <lyric number="1" default-x="6.58" default-y="-50.65" relative-y="-30.00">
          <syllabic>single</syllabic>
          <text font-weight="bold">aa</text>
          </lyric>
        <lyric number="2" default-x="6.58" default-y="-83.77" relative-y="-30.00">
          <syllabic>single</syllabic>
          <text font-size="14">G</text>
          </lyric>
        </note>
      <note default-x="293.88" default-y="-35.00">
        <pitch>
          <step>F</step>
          <octave>4</octave>
          </pitch>
        <duration>2</duration>
        <voice>1</voice>
        <type>quarter</type>
        <stem>up</stem>
        <lyric number="1" default-x="6.58" default-y="-50.65" relative-y="-30.00">
          <syllabic>single</syllabic>
          <text font-weight="bold">aa</text>
          </lyric>
        <lyric number="2" default-x="6.58" default-y="-83.77" relative-y="-30.00">
          <syllabic>single</syllabic>
          <text font-size="14">m</text>
          </lyric>
        </note>
      <note default-x="372.87" default-y="-40.00">
        <pitch>
          <step>E</step>
          <alter>-1</alter>
          <octave>4</octave>
          </pitch>
        <duration>4</duration>
        <voice>1</voice>
        <type>half</type>
        <accidental>flat</accidental>
        <stem>up</stem>
        <lyric number="1" default-x="6.22" default-y="-50.65" relative-y="-30.00">
          <syllabic>single</syllabic>
          <text font-weight="bold">aa</text>
          </lyric>
        <lyric number="2" default-x="6.22" default-y="-83.77" relative-y="-30.00">
          <syllabic>single</syllabic>
          <text font-size="14">g</text>
          </lyric>
        </note>
      <note default-x="499.84" default-y="-50.00">
        <pitch>
          <step>C</step>
          <octave>4</octave>
          </pitch>
        <duration>4</duration>
        <voice>1</voice>
        <type>half</type>
        <stem>up</stem>
        <lyric number="1" default-x="6.22" default-y="-50.65" relative-y="-30.00">
          <syllabic>single</syllabic>
          <text font-weight="bold">ye</text>
          </lyric>
        <lyric number="2" default-x="6.22" default-y="-83.77" relative-y="-30.00">
          <syllabic>single</syllabic>
          <text font-size="14">S</text>
          </lyric>
        </note>
      <barline location="middle">
        <bar-style>dashed</bar-style>
        </barline>
      <note>
        <rest/>
        <duration>2</duration>
        <voice>1</voice>
        <type>quarter</type>
        </note>
      <note>
        <rest/>
        <duration>2</duration>
        <voice>1</voice>
        <type>quarter</type>
        </note>
      <note>
        <rest/>
        <duration>4</duration>
        <voice>1</voice>
        <type>half</type>
        </note>
      <note>
        <rest/>
        <duration>8</duration>
        <voice>1</voice>
        <type>whole</type>
        </note>
      <barline location="right">
        <bar-style>light-heavy</bar-style>
        </barline>
      </measure>
    </part>
  </score-partwise>
